<svg width="660" height="660" viewBox="0 0 660 660" fill="none" xmlns="http://www.w3.org/2000/svg">
<g clip-path="url(#clip0_186_41)">
<rect width="660" height="660" fill="white"/>
<path d="M86.4634 399.694C93.3392 395.041 92.1932 379.339 90.7608 372.069C90.7608 357.529 64.9779 360.437 59.2481 364.799C53.5183 369.161 43.49 379.339 42.0575 399.694C40.6251 420.05 66.4092 415.688 67.8416 415.688C69.2741 415.688 77.8687 405.51 86.4634 399.694Z" fill="black"/>
<path d="M129.233 560.638C186.558 607.993 263.994 637.583 353.719 637.583C425.5 637.583 489.969 592.72 513.231 570.289C498.278 570.289 462.888 569.293 440.955 565.311C413.539 560.334 376.153 520.448 376.153 433.216C376.153 345.983 423.508 288.658 428.493 286.166C433.478 283.673 416.031 395.83 423.508 433.216C430.985 470.601 470.863 498.017 523.203 483.063C575.543 468.109 610.436 440.686 617.913 375.884C623.895 324.043 580.528 274.532 558.096 256.257C558.096 251.272 576.5 222.896 558.096 201.418C523.203 171.51 423.508 166.525 348.737 176.494C273.966 186.464 214.149 261.235 211.657 273.697C209.164 286.159 181.748 326.037 151.84 336.006C121.931 345.975 87.0382 333.514 89.5305 375.884C92.0229 418.254 54.635 405.792 52.1426 440.686C49.6502 475.579 74.5739 505.487 97.0053 530.411" stroke="black" stroke-width="3"/>
<path d="M284.415 199.991H259.809L360.968 287.396L365.069 117.547C378.739 125.293 431.549 166.91 456 168.898C479.049 172.41 499.745 164.797 510.681 137.457C519.43 115.585 493.174 147.745 479.049 140.91C445.785 124.506 349.758 19.3953 343.196 15.0208C334.994 9.55276 311.755 8.18575 296.718 20.4889C284.688 30.3314 283.504 49.1962 284.415 57.3983V199.991Z" fill="black"/>
<ellipse cx="249.5" cy="296.397" rx="121.5" ry="104" transform="rotate(-45 249.5 296.397)" fill="black"/>
<rect x="183.989" y="506.396" width="344" height="154" fill="white"/>
<path d="M140 611.396C133.867 611.396 127.933 610.796 122.2 609.596C116.6 608.53 111.533 606.93 107 604.796C102.6 602.663 99.0667 600.063 96.4 596.996C93.8667 593.796 92.6 590.196 92.6 586.196C92.6 582.863 93.6 580.196 95.6 578.196C97.6 576.063 100.133 574.463 103.2 573.396C106.4 572.33 109.667 571.796 113 571.796C116.6 571.796 119.867 572.33 122.8 573.396C125.867 574.463 128.267 575.996 130 577.996C131.867 579.996 132.8 582.463 132.8 585.396C132.8 587.396 132.4 589.196 131.6 590.796C130.933 592.396 129.733 594.13 128 595.996C126.133 597.73 124.8 599.196 124 600.396C123.333 601.463 123 602.663 123 603.996C123 604.796 123.533 605.663 124.6 606.596C125.8 607.396 127.533 608.063 129.8 608.596C132.067 609.263 134.867 609.596 138.2 609.596C142.733 609.596 146.867 609.063 150.6 607.996C154.467 606.796 157.533 605.063 159.8 602.796C162.067 600.396 163.2 597.263 163.2 593.396C163.2 590.063 162.2 587.063 160.2 584.396C158.333 581.73 155.067 579.13 150.4 576.596C145.867 573.93 139.667 571.13 131.8 568.196C122.333 564.463 114.8 560.863 109.2 557.396C103.733 553.796 99.8 550.063 97.4 546.196C95.1333 542.33 94 538.196 94 533.796C94 525.13 98.4 518.263 107.2 513.196C116.133 507.996 128.133 505.396 143.2 505.396C151.333 505.396 158.867 506.396 165.8 508.396C172.867 510.396 178.533 513.196 182.8 516.796C187.067 520.396 189.2 524.663 189.2 529.596C189.2 532.663 188.267 535.196 186.4 537.196C184.667 539.196 182.333 540.73 179.4 541.796C176.467 542.863 173.4 543.396 170.2 543.396C167.533 543.396 164.933 543.13 162.4 542.596C160 541.93 157.8 541.063 155.8 539.996C153.8 538.796 152.133 537.33 150.8 535.596C149.6 533.863 149 531.863 149 529.596C149 525.596 151 521.996 155 518.796C157.133 516.93 158.6 515.463 159.4 514.396C160.2 513.33 160.6 512.33 160.6 511.396C160.6 510.863 160.267 510.33 159.6 509.796C158.933 509.263 157.933 508.863 156.6 508.596C155.4 508.196 153.867 507.863 152 507.596C150.133 507.33 147.933 507.196 145.4 507.196C140.867 507.196 136.6 507.73 132.6 508.796C128.733 509.73 125.533 511.196 123 513.196C120.6 515.196 119.4 517.796 119.4 520.996C119.4 524.463 120.8 527.596 123.6 530.396C126.4 533.196 130.133 535.863 134.8 538.396C139.6 540.93 145 543.396 151 545.796C161.133 549.93 169.133 553.73 175 557.196C180.867 560.53 185 563.93 187.4 567.396C189.933 570.73 191.2 574.396 191.2 578.396C191.2 583.996 189.733 588.863 186.8 592.996C184 597.13 180.2 600.53 175.4 603.196C170.6 605.863 165.133 607.863 159 609.196C153 610.663 146.667 611.396 140 611.396ZM262.547 505.396C271.214 505.396 278.614 506.196 284.747 507.796C290.88 509.396 295.947 511.93 299.947 515.396C303.947 518.73 306.88 522.93 308.747 527.996C310.747 533.063 311.747 539.063 311.747 545.996V601.796C311.747 603.13 311.947 604.196 312.347 604.996C312.88 605.796 313.747 606.196 314.947 606.196C316.014 606.196 317.347 605.863 318.947 605.196C320.547 604.53 322.28 603.596 324.147 602.396V604.396C322.414 605.73 320.214 606.93 317.547 607.996C315.014 609.063 312.28 609.863 309.347 610.396C306.547 611.063 303.747 611.396 300.947 611.396C292.68 611.396 286.08 609.33 281.147 605.196C276.214 601.063 273.747 594.13 273.747 584.396C273.747 583.196 273.747 582.33 273.747 581.796C273.747 581.263 273.747 580.796 273.747 580.396C273.747 579.863 273.747 579.263 273.747 578.596L272.147 577.396C269.747 582.73 266.947 587.53 263.747 591.796C260.547 595.93 257.014 599.463 253.147 602.396C249.414 605.33 245.48 607.53 241.347 608.996C237.214 610.596 233.014 611.396 228.747 611.396C223.68 611.396 219.147 610.463 215.147 608.596C211.147 606.73 207.947 604.13 205.547 600.796C203.147 597.33 201.947 593.263 201.947 588.596C201.947 577.396 208.147 568.73 220.547 562.596C233.08 556.33 250.814 553.196 273.747 553.196C273.747 541.73 273.08 532.863 271.747 526.596C270.547 520.196 268.147 515.73 264.547 513.196C260.947 510.663 255.747 509.396 248.947 509.396C245.214 509.396 241.88 509.73 238.947 510.396C236.014 511.063 233.68 511.863 231.947 512.796C230.347 513.73 229.547 514.596 229.547 515.396C229.547 516.063 230.347 516.863 231.947 517.796C233.68 518.596 236.68 519.73 240.947 521.196C249.48 524.13 253.747 528.53 253.747 534.396C253.747 539.463 251.48 543.33 246.947 545.996C242.414 548.663 236.747 549.996 229.947 549.996C223.28 549.996 217.68 548.663 213.147 545.996C208.747 543.33 206.547 539.396 206.547 534.196C206.547 530.73 208.08 527.263 211.147 523.796C214.214 520.33 218.347 517.263 223.547 514.596C228.747 511.796 234.68 509.596 241.347 507.996C248.147 506.263 255.214 505.396 262.547 505.396ZM273.747 555.396C265.08 555.396 258.014 556.996 252.547 560.196C247.08 563.263 243.014 567.13 240.347 571.796C237.814 576.463 236.547 581.13 236.547 585.796C236.547 588.596 236.947 590.93 237.747 592.796C238.68 594.53 239.814 595.863 241.147 596.796C242.614 597.596 244.347 597.996 246.347 597.996C248.347 597.996 250.547 597.463 252.947 596.396C255.347 595.33 257.747 593.663 260.147 591.396C262.68 589.13 265.08 586.196 267.347 582.596C269.747 578.996 271.88 574.596 273.747 569.396V555.396ZM378.858 651.396C371.124 651.396 364.258 650.596 358.258 648.996C352.391 647.53 347.391 645.463 343.258 642.796C339.258 640.263 336.191 637.396 334.058 634.196C331.924 631.13 330.858 627.93 330.858 624.596C330.858 620.73 331.724 617.33 333.458 614.396C335.324 611.463 337.858 609.196 341.058 607.596C344.391 605.863 348.058 604.996 352.058 604.996C358.591 604.996 363.658 606.396 367.258 609.196C370.991 612.13 372.858 615.796 372.858 620.196C372.858 623.93 372.058 626.93 370.458 629.196C368.991 631.596 367.124 633.463 364.858 634.796C362.591 636.13 360.258 637.13 357.858 637.796C355.591 638.596 353.658 639.263 352.058 639.796C350.591 640.463 349.858 641.196 349.858 641.996C349.858 643.063 350.858 644.063 352.858 644.996C354.991 646.063 357.724 646.93 361.058 647.596C364.524 648.263 368.324 648.596 372.458 648.596C379.124 648.596 384.924 647.463 389.858 645.196C394.924 643.063 398.858 640.063 401.658 636.196C404.458 632.463 405.858 628.13 405.858 623.196C405.858 618.663 404.658 614.796 402.258 611.596C399.991 608.396 396.391 605.796 391.458 603.796C386.524 601.663 380.124 600.13 372.258 599.196C364.391 598.13 354.991 597.596 344.058 597.596V594.596L370.658 575.196L372.658 576.396L363.058 583.796L364.658 585.796C375.058 585.796 384.458 586.263 392.858 587.196C401.391 587.996 408.858 589.263 415.258 590.996C421.658 592.73 426.991 594.93 431.258 597.596C435.524 600.13 438.724 603.13 440.858 606.596C442.991 610.063 444.058 613.93 444.058 618.196C444.058 626.196 441.324 632.596 435.858 637.396C430.524 642.196 422.991 645.73 413.258 647.996C403.524 650.263 392.058 651.396 378.858 651.396ZM386.858 578.396C379.391 578.396 372.324 577.73 365.658 576.396C359.124 575.063 353.258 573.063 348.058 570.396C342.991 567.596 338.924 564.063 335.858 559.796C332.924 555.53 331.458 550.33 331.458 544.196C331.458 538.596 332.858 533.463 335.658 528.796C338.591 523.996 342.591 519.863 347.658 516.396C352.724 512.93 358.658 510.263 365.458 508.396C372.258 506.396 379.658 505.396 387.658 505.396C394.191 505.396 400.724 506.33 407.258 508.196C413.924 509.93 419.991 512.463 425.458 515.796C430.924 519.13 435.324 523.196 438.658 527.996C441.991 532.796 443.658 538.196 443.658 544.196C443.658 548.596 442.591 552.863 440.458 556.996C438.458 560.996 435.191 564.663 430.658 567.996C426.124 571.196 420.258 573.73 413.058 575.596C405.858 577.463 397.124 578.396 386.858 578.396ZM387.658 575.996C391.791 575.996 395.058 574.93 397.458 572.796C399.991 570.53 401.858 567.263 403.058 562.996C404.258 558.596 404.858 553.396 404.858 547.396C404.858 540.33 404.324 533.796 403.258 527.796C402.191 521.796 400.391 516.93 397.858 513.196C395.324 509.463 391.924 507.596 387.658 507.596C383.391 507.596 379.991 509.463 377.458 513.196C374.924 516.93 373.058 521.796 371.858 527.796C370.791 533.796 370.258 540.33 370.258 547.396C370.258 553.263 370.858 558.396 372.058 562.796C373.258 567.063 375.124 570.33 377.658 572.596C380.191 574.863 383.524 575.996 387.658 575.996ZM402.458 509.596L389.858 506.396C392.924 506.396 396.191 505.796 399.658 504.596C403.124 503.396 406.458 501.863 409.658 499.996C412.991 498.13 416.058 496.13 418.858 493.996C421.791 491.863 424.324 489.796 426.458 487.796C428.724 485.796 430.458 484.13 431.658 482.796L441.658 505.796H402.458V509.596ZM514.448 505.396C526.182 505.396 535.782 507.73 543.248 512.396C550.848 516.93 556.448 522.93 560.048 530.396C563.782 537.863 565.648 545.996 565.648 554.796H495.448V552.796L530.448 549.396C530.448 540.463 529.982 532.93 529.048 526.796C528.115 520.53 526.448 515.796 524.048 512.596C521.782 509.263 518.515 507.596 514.248 507.596C510.382 507.596 507.048 509.13 504.248 512.196C501.582 515.263 499.515 520.263 498.048 527.196C496.715 533.996 496.048 543.063 496.048 554.396C496.048 559.73 496.715 565.13 498.048 570.596C499.382 575.93 501.315 580.863 503.848 585.396C506.515 589.796 509.848 593.33 513.848 595.996C517.848 598.663 522.582 599.996 528.048 599.996C531.115 599.996 534.248 599.53 537.448 598.596C540.648 597.53 543.715 596.063 546.648 594.196C549.582 592.196 552.248 589.863 554.648 587.196C557.182 584.53 559.248 581.396 560.848 577.796L563.248 579.796C559.915 586.596 556.115 592.13 551.848 596.396C547.582 600.53 543.048 603.73 538.248 605.996C533.582 608.13 528.915 609.53 524.248 610.196C519.715 610.996 515.382 611.396 511.248 611.396C502.448 611.396 494.715 609.93 488.048 606.996C481.382 604.063 475.782 600.196 471.248 595.396C466.715 590.463 463.248 584.93 460.848 578.796C458.582 572.663 457.448 566.396 457.448 559.996C457.448 551.596 458.848 544.063 461.648 537.396C464.582 530.596 468.582 524.796 473.648 519.996C478.715 515.196 484.715 511.596 491.648 509.196C498.582 506.663 506.182 505.396 514.448 505.396Z" fill="black"/>
<circle cx="293" cy="411" r="4" fill="black"/>
<circle cx="313" cy="401" r="4" fill="black"/>
</g>
<defs>
<clipPath id="clip0_186_41">
<rect width="660" height="660" fill="white"/>
</clipPath>
</defs>
</svg>
