<svg width="30" height="30" viewBox="0 0 30 30" fill="none" xmlns="http://www.w3.org/2000/svg">
<path fill-rule="evenodd" clip-rule="evenodd" d="M19.4992 8C21.1649 8.00006 22.4685 8.65465 23.2386 9.64891C24.0072 10.6414 24.2204 11.9452 23.7565 13.1804C23.685 13.3707 23.5404 13.6201 23.3603 13.896C23.1752 14.1798 22.9354 14.518 22.6556 14.8933C22.0955 15.6444 21.3651 16.5592 20.5691 17.5174C18.978 19.4327 17.11 21.5382 15.7853 22.8813C15.6328 23.0359 15.3815 23.0401 15.224 22.8904C15.2208 22.8874 15.2185 22.8836 15.2155 22.8805L15.2147 22.8813C13.8901 21.5382 12.0221 19.4328 10.4309 17.5174C9.63487 16.5591 8.90461 15.6445 8.34448 14.8933C8.06461 14.5179 7.82492 14.1798 7.6397 13.896C7.45956 13.62 7.31501 13.3708 7.24351 13.1804C6.77959 11.9451 6.99282 10.6415 7.76143 9.64891C8.53155 8.65472 9.83511 8 11.5009 8C12.8706 8.00011 13.894 8.57475 14.6061 9.2835C14.9898 9.66547 15.283 10.0899 15.4992 10.4886C15.7155 10.0897 16.0101 9.66562 16.394 9.2835C17.1061 8.57481 18.1294 8.00005 19.4992 8ZM19.4992 8.77954C18.3787 8.77959 17.5501 9.2428 16.9592 9.83085C16.3608 10.4265 16.0142 11.1444 15.8823 11.6076C15.8817 11.6097 15.8798 11.6117 15.8792 11.6137C15.874 11.6308 15.8672 11.6471 15.8598 11.6632C15.8562 11.6709 15.8529 11.6787 15.8489 11.6861C15.8408 11.701 15.831 11.7148 15.821 11.7287C15.8162 11.7353 15.8122 11.7423 15.807 11.7485C15.7944 11.7639 15.7802 11.7777 15.7652 11.7911C15.7615 11.7944 15.7581 11.7979 15.7543 11.801C15.7401 11.8127 15.7245 11.8225 15.7086 11.8322C15.7024 11.836 15.6971 11.841 15.6907 11.8444C15.6775 11.8515 15.6631 11.8562 15.6489 11.8619C15.6378 11.8664 15.627 11.8714 15.6155 11.8749C15.6126 11.8757 15.61 11.8778 15.607 11.8787C15.5987 11.8809 15.5897 11.8807 15.5814 11.8825C15.5673 11.8854 15.5533 11.8886 15.5388 11.8901C15.5258 11.8913 15.5129 11.8908 15.5 11.8908C15.4869 11.8909 15.4738 11.8914 15.4605 11.8901C15.4455 11.8886 15.4309 11.8856 15.4163 11.8825C15.4086 11.8808 15.4006 11.8807 15.393 11.8787C15.3901 11.8779 15.3873 11.8765 15.3845 11.8756C15.3725 11.872 15.3612 11.8666 15.3496 11.8619C15.3351 11.8561 15.3204 11.851 15.307 11.8436C15.3027 11.8413 15.2987 11.8385 15.2946 11.836C15.2777 11.826 15.2614 11.8155 15.2465 11.8033C15.2369 11.7955 15.2289 11.7861 15.2201 11.7774C15.2113 11.7687 15.2017 11.761 15.1938 11.7515C15.1852 11.7414 15.1788 11.7298 15.1713 11.7188C15.1641 11.7082 15.1564 11.698 15.1503 11.6868C15.1462 11.6792 15.1431 11.6712 15.1395 11.6632C15.1321 11.6471 15.1253 11.6308 15.1201 11.6137C15.1195 11.6117 15.1184 11.6097 15.1178 11.6076C14.9859 11.1444 14.6393 10.4266 14.0408 9.83085C13.45 9.24274 12.6213 8.77965 11.5009 8.77954C10.0533 8.77954 8.99607 9.34218 8.39333 10.1201C7.78941 10.8999 7.61737 11.9245 7.98783 12.9109C8.02702 13.0153 8.13004 13.2031 8.30804 13.4758C8.48104 13.7409 8.7103 14.0644 8.98491 14.4327C9.53394 15.169 10.2546 16.0725 11.0457 17.0248C12.516 18.7947 14.2198 20.7204 15.4992 22.0446C16.7787 20.7204 18.4838 18.795 19.9543 17.0248C20.7454 16.0725 21.4661 15.169 22.0151 14.4327C22.2897 14.0645 22.519 13.7408 22.692 13.4758C22.8699 13.2032 22.973 13.0152 23.0122 12.9109C23.3826 11.9245 23.2106 10.8999 22.6067 10.1201C22.004 9.34212 20.9468 8.77959 19.4992 8.77954Z" fill="#111111"/>
</svg>
