<svg width="30" height="30" viewBox="0 0 30 30" fill="none" xmlns="http://www.w3.org/2000/svg">
<path d="M7.53683 17.0875C7.7467 16.9455 7.71172 16.4662 7.668 16.2443C7.668 15.8005 6.88104 15.8893 6.70615 16.0224C6.53126 16.1556 6.22517 16.4662 6.18144 17.0875C6.13772 17.7088 6.92472 17.5757 6.96844 17.5757C7.01217 17.5757 7.2745 17.2651 7.53683 17.0875Z" fill="black"/>
<path d="M16.3334 18.1139C16.3334 16.7743 16.697 15.6643 17.0798 14.8797C17.2712 14.4874 17.4675 14.176 17.6259 13.9576C17.7051 13.8484 17.775 13.7622 17.8304 13.7004C17.858 13.6696 17.8823 13.6446 17.9026 13.6257C17.9217 13.6079 17.9404 13.5925 17.9563 13.5846L17.9601 13.5828C17.9693 13.579 17.9812 13.5768 17.9942 13.58C18.0088 13.5836 18.0187 13.5923 18.0247 13.5997C18.0353 13.6129 18.0399 13.6295 18.0424 13.6413C18.048 13.6674 18.0501 13.7049 18.0504 13.7495C18.0508 13.8401 18.0432 13.9737 18.0307 14.1377C18.0058 14.466 17.9605 14.9237 17.9178 15.4172C17.875 15.9115 17.8347 16.443 17.8193 16.922C17.8038 17.402 17.8136 17.8252 17.8695 18.1049C18.0918 19.2161 19.2795 20.0415 20.855 19.5914C21.6497 19.3643 22.3068 19.044 22.7935 18.5385C23.2796 18.0336 23.5997 17.34 23.7129 16.3587C23.8026 15.5816 23.5225 14.8187 23.1316 14.178C22.7409 13.5375 22.2424 13.0241 21.9037 12.7481L21.8869 12.7344V12.7126C21.8869 12.6971 21.8903 12.6802 21.8946 12.6641C21.899 12.6475 21.9053 12.6286 21.9126 12.6084C21.9271 12.5682 21.9474 12.518 21.969 12.4625C22.0126 12.3502 22.0643 12.2098 22.0986 12.0546C22.1671 11.745 22.1655 11.383 21.9001 11.0713C21.6409 10.8501 21.2591 10.6725 20.7929 10.5359C20.3258 10.3991 19.7772 10.3044 19.1896 10.2476C18.0142 10.1338 16.6864 10.1717 15.5485 10.3234C14.4199 10.4739 13.401 11.1143 12.6532 11.7675C12.2796 12.0937 11.9749 12.4222 11.759 12.6923C11.6511 12.8273 11.5658 12.9474 11.5053 13.0449C11.4437 13.1441 11.411 13.2152 11.4033 13.2539C11.3826 13.3571 11.3126 13.5101 11.2086 13.6833C11.1038 13.858 10.9621 14.0573 10.7941 14.2541C10.4592 14.6465 10.0151 15.0342 9.54706 15.1902C9.31404 15.2679 9.07223 15.3016 8.84506 15.3289C8.61601 15.3565 8.4043 15.3775 8.22322 15.4286C8.0434 15.4793 7.90025 15.5581 7.80517 15.6968C7.70969 15.8362 7.65774 16.0434 7.67643 16.3613C7.69586 16.6914 7.63777 16.9198 7.53449 17.0924C7.43172 17.2641 7.28685 17.3756 7.14345 17.476C6.9981 17.5778 6.85701 17.6665 6.74522 17.7954C6.63546 17.922 6.55354 18.0884 6.5352 18.3451C6.49804 18.8654 6.66503 19.3507 6.92848 19.8023C7.19214 20.2543 7.55061 20.6696 7.8929 21.0499L7.82485 21.1112C7.48247 20.7308 7.11823 20.3093 6.84937 19.8484C6.5803 19.3872 6.40496 18.8834 6.44387 18.3386C6.46357 18.0629 6.55282 17.8775 6.67604 17.7354C6.79724 17.5957 6.95098 17.499 7.09093 17.401C7.23281 17.3017 7.36374 17.1993 7.45592 17.0453C7.5476 16.8922 7.60363 16.6831 7.58502 16.3666C7.56568 16.0379 7.6183 15.8076 7.72964 15.6451C7.84139 15.482 8.00732 15.3943 8.19836 15.3404C8.38813 15.2869 8.60909 15.2651 8.83409 15.238C9.06099 15.2107 9.29466 15.1778 9.51808 15.1034C9.96289 14.9551 10.3937 14.5821 10.7244 14.1947C10.8893 14.0016 11.0281 13.8063 11.1301 13.6362C11.233 13.4648 11.296 13.323 11.3134 13.2359C11.3247 13.1795 11.3657 13.0961 11.4275 12.9966C11.4903 12.8953 11.5779 12.7722 11.6875 12.6351C11.9067 12.3608 12.2153 12.0284 12.593 11.6985C13.3476 11.0394 14.3827 10.3865 15.5364 10.2327C16.6806 10.0801 18.0155 10.0419 19.1984 10.1564C19.7899 10.2136 20.3444 10.3091 20.8187 10.4481C21.2775 10.5825 21.6643 10.7584 21.9365 10.9822L21.9624 11.004L21.9651 11.0063L21.9674 11.009C22.2615 11.3522 22.2597 11.7499 22.188 12.0744C22.1521 12.2367 22.0984 12.3823 22.0543 12.4957C22.032 12.553 22.0127 12.6006 21.9987 12.6394C21.9918 12.6587 21.9865 12.6747 21.983 12.6878L21.9816 12.6936C22.3268 12.979 22.8208 13.4925 23.2098 14.1303C23.6063 14.7802 23.8968 15.564 23.8039 16.3692C23.6889 17.3659 23.3623 18.0797 22.8595 18.602C22.3572 19.1236 21.683 19.45 20.8802 19.6794C19.2606 20.1421 18.0139 19.2938 17.7797 18.1229C17.7216 17.832 17.7123 17.3994 17.7277 16.919C17.7432 16.4375 17.7838 15.904 17.8266 15.4093C17.8694 14.9139 17.9145 14.4587 17.9394 14.1308C17.9519 13.9668 17.9592 13.8365 17.9588 13.75C17.9587 13.7305 17.9581 13.7139 17.9573 13.7001C17.941 13.7158 17.9213 13.7362 17.8985 13.7616C17.8457 13.8205 17.7777 13.9042 17.7 14.0114C17.5446 14.2256 17.3511 14.5324 17.1621 14.9198C16.7841 15.6947 16.425 16.7909 16.425 18.1139C16.425 19.0107 16.5551 19.7411 16.7585 20.3203L16.6722 20.3506C16.4648 19.7603 16.3335 19.0194 16.3334 18.1139Z" fill="black" stroke="black" stroke-width="0.2"/>
<path d="M17.3556 21.4238C17.6848 21.8268 18.0503 22.0423 18.3647 22.0994C18.8236 22.1827 19.4792 22.2231 19.9924 22.2401L19.9894 22.3316C19.4757 22.3146 18.8143 22.2741 18.3483 22.1895C18.0073 22.1275 17.624 21.8971 17.2847 21.4818L17.3556 21.4238Z" fill="black"/>
<path d="M18.4387 23.7473C18.0935 23.9054 17.7225 24.047 17.333 24.1571L17.3081 24.069C17.6925 23.9603 18.0592 23.8205 18.4005 23.6641L18.4387 23.7473Z" fill="black"/>
<path d="M13.5787 10.9931H12.8276L15.9153 13.661L16.0405 8.47672C16.4577 8.71316 18.0696 9.98341 18.8159 10.0441C19.5194 10.1513 20.1511 9.91893 20.4849 9.08443C20.752 8.41683 19.9506 9.39845 19.5194 9.18982C18.5041 8.68912 15.5731 5.48086 15.3729 5.34734C15.1225 5.18044 14.4132 5.13871 13.9542 5.51424C13.587 5.81466 13.5509 6.39046 13.5787 6.64081V10.9931Z" fill="black"/>
<path d="M15.1357 11.3164C16.3754 12.5561 16.2063 14.7351 14.758 16.1833C13.3098 17.6316 11.1308 17.8007 9.8911 16.561C8.65143 15.3214 8.82053 13.1424 10.2688 11.6941C11.7171 10.2458 13.8961 10.0767 15.1357 11.3164Z" fill="black"/>
<path d="M20.5997 20.3184C20.9578 20.3184 21.2508 20.3896 21.4787 20.532C21.7107 20.6704 21.8816 20.8535 21.9915 21.0814C22.1055 21.3093 22.1624 21.5576 22.1624 21.8262H20.0197V21.7651L21.088 21.6614C21.088 21.3887 21.0738 21.1588 21.0453 20.9715C21.0168 20.7803 20.9659 20.6358 20.8927 20.5381C20.8235 20.4364 20.7238 20.3855 20.5936 20.3855C20.4755 20.3855 20.3738 20.4323 20.2883 20.5259C20.2069 20.6195 20.1439 20.7721 20.0991 20.9838C20.0584 21.1913 20.038 21.468 20.038 21.814C20.038 21.9768 20.0584 22.1416 20.0991 22.3084C20.1398 22.4712 20.1988 22.6218 20.2761 22.7602C20.3575 22.8945 20.4593 23.0023 20.5813 23.0837C20.7034 23.1651 20.8479 23.2058 21.0148 23.2058C21.1084 23.2058 21.204 23.1916 21.3017 23.1631C21.3994 23.1305 21.493 23.0858 21.5825 23.0288C21.672 22.9677 21.7534 22.8965 21.8267 22.8151C21.904 22.7337 21.9671 22.6381 22.0159 22.5282L22.0892 22.5893C21.9874 22.7968 21.8714 22.9657 21.7412 23.0959C21.611 23.2221 21.4726 23.3198 21.3261 23.3889C21.1837 23.4541 21.0412 23.4968 20.8988 23.5171C20.7604 23.5416 20.6281 23.5538 20.502 23.5538C20.2334 23.5538 19.9973 23.509 19.7939 23.4195C19.5904 23.3299 19.4194 23.2119 19.2811 23.0654C19.1427 22.9148 19.0369 22.7459 18.9636 22.5587C18.8945 22.3715 18.8599 22.1802 18.8599 21.9849C18.8599 21.7285 18.9026 21.4986 18.9881 21.2951C19.0776 21.0875 19.1997 20.9105 19.3543 20.764C19.509 20.6175 19.6921 20.5076 19.9037 20.4343C20.1154 20.357 20.3473 20.3184 20.5997 20.3184Z" fill="black"/>
<path d="M16.4617 24.7731C16.2256 24.7731 16.016 24.7487 15.8329 24.6998C15.6538 24.6551 15.5012 24.592 15.3751 24.5106C15.253 24.4333 15.1594 24.3458 15.0943 24.2481C15.0291 24.1545 14.9966 24.0568 14.9966 23.9551C14.9966 23.8371 15.023 23.7333 15.0759 23.6437C15.1329 23.5542 15.2102 23.485 15.3079 23.4362C15.4097 23.3833 15.5216 23.3568 15.6437 23.3568C15.8431 23.3568 15.9977 23.3996 16.1076 23.485C16.2216 23.5746 16.2785 23.6865 16.2785 23.8208C16.2785 23.9347 16.2541 24.0263 16.2053 24.0955C16.1605 24.1687 16.1035 24.2257 16.0344 24.2664C15.9652 24.3071 15.894 24.3376 15.8207 24.358C15.7515 24.3824 15.6925 24.4027 15.6437 24.419C15.5989 24.4394 15.5765 24.4618 15.5765 24.4862C15.5765 24.5187 15.607 24.5493 15.6681 24.5777C15.7332 24.6103 15.8166 24.6368 15.9184 24.6571C16.0242 24.6775 16.1402 24.6876 16.2663 24.6876C16.4698 24.6876 16.6468 24.653 16.7974 24.5838C16.9521 24.5187 17.0721 24.4272 17.1576 24.3091C17.2431 24.1952 17.2858 24.0629 17.2858 23.9123C17.2858 23.774 17.2492 23.656 17.1759 23.5583C17.1067 23.4606 16.9968 23.3813 16.8463 23.3202C16.6957 23.2551 16.5003 23.2083 16.2602 23.1798C16.0201 23.1472 15.7332 23.131 15.3995 23.131V23.0394L16.2114 22.4473L16.2724 22.4839L15.9794 22.7098L16.0283 22.7708C16.3457 22.7708 16.6326 22.785 16.889 22.8135C17.1495 22.8379 17.3774 22.8766 17.5727 22.9295C17.768 22.9824 17.9308 23.0496 18.0611 23.131C18.1913 23.2083 18.289 23.2999 18.3541 23.4057C18.4192 23.5115 18.4518 23.6295 18.4518 23.7597C18.4518 24.0039 18.3683 24.1993 18.2015 24.3458C18.0387 24.4923 17.8087 24.6001 17.5117 24.6693C17.2146 24.7385 16.8646 24.7731 16.4617 24.7731ZM16.7059 22.5449C16.478 22.5449 16.2623 22.5246 16.0588 22.4839C15.8594 22.4432 15.6803 22.3821 15.5216 22.3007C15.3669 22.2153 15.2428 22.1074 15.1492 21.9772C15.0597 21.847 15.0149 21.6883 15.0149 21.5011C15.0149 21.3301 15.0576 21.1734 15.1431 21.031C15.2326 20.8845 15.3547 20.7583 15.5094 20.6525C15.664 20.5467 15.8451 20.4653 16.0527 20.4083C16.2602 20.3473 16.4861 20.3168 16.7303 20.3168C16.9297 20.3168 17.1291 20.3453 17.3285 20.4022C17.532 20.4551 17.7172 20.5325 17.884 20.6342C18.0509 20.7359 18.1852 20.8601 18.2869 21.0066C18.3887 21.1531 18.4395 21.3179 18.4395 21.5011C18.4395 21.6354 18.407 21.7656 18.3419 21.8917C18.2808 22.0138 18.1811 22.1257 18.0428 22.2275C17.9044 22.3252 17.7253 22.4025 17.5056 22.4595C17.2858 22.5164 17.0192 22.5449 16.7059 22.5449ZM16.7303 22.4717C16.8564 22.4717 16.9561 22.4391 17.0294 22.374C17.1067 22.3048 17.1637 22.2051 17.2003 22.0749C17.237 21.9406 17.2553 21.7819 17.2553 21.5987C17.2553 21.383 17.239 21.1836 17.2064 21.0005C17.1739 20.8173 17.1189 20.6688 17.0416 20.5548C16.9643 20.4409 16.8605 20.3839 16.7303 20.3839C16.6 20.3839 16.4963 20.4409 16.4189 20.5548C16.3416 20.6688 16.2846 20.8173 16.248 21.0005C16.2155 21.1836 16.1992 21.383 16.1992 21.5987C16.1992 21.7778 16.2175 21.9345 16.2541 22.0688C16.2907 22.199 16.3477 22.2987 16.425 22.3679C16.5024 22.4371 16.6041 22.4717 16.7303 22.4717ZM17.182 20.445L16.7974 20.3473C16.891 20.3473 16.9907 20.329 17.0965 20.2923C17.2024 20.2557 17.3041 20.2089 17.4018 20.1519C17.5035 20.095 17.5971 20.0339 17.6826 19.9688C17.7721 19.9037 17.8494 19.8406 17.9146 19.7796C17.9837 19.7185 18.0366 19.6677 18.0733 19.627L18.3785 20.329H17.182V20.445Z" fill="black"/>
<path d="M12.9107 20.3184C13.1752 20.3184 13.4011 20.3428 13.5883 20.3916C13.7755 20.4405 13.9302 20.5178 14.0523 20.6236C14.1744 20.7253 14.2639 20.8535 14.3209 21.0082C14.3819 21.1628 14.4124 21.346 14.4124 21.5576V23.2608C14.4124 23.3014 14.4185 23.334 14.4307 23.3584C14.447 23.3828 14.4735 23.3951 14.5101 23.3951C14.5427 23.3951 14.5834 23.3849 14.6322 23.3645C14.681 23.3442 14.7339 23.3157 14.7909 23.2791V23.3401C14.738 23.3808 14.6709 23.4174 14.5895 23.45C14.5121 23.4826 14.4287 23.507 14.3392 23.5232C14.2537 23.5436 14.1683 23.5538 14.0828 23.5538C13.8305 23.5538 13.629 23.4907 13.4784 23.3645C13.3279 23.2384 13.2526 23.0267 13.2526 22.7297C13.2526 22.693 13.2526 22.6666 13.2526 22.6503C13.2526 22.634 13.2526 22.6198 13.2526 22.6076C13.2526 22.5913 13.2526 22.573 13.2526 22.5526L13.2037 22.516C13.1305 22.6788 13.045 22.8253 12.9473 22.9555C12.8497 23.0817 12.7418 23.1895 12.6238 23.2791C12.5098 23.3686 12.3898 23.4357 12.2636 23.4805C12.1375 23.5294 12.0093 23.5538 11.879 23.5538C11.7244 23.5538 11.586 23.5253 11.4639 23.4683C11.3418 23.4113 11.2442 23.332 11.1709 23.2302C11.0977 23.1244 11.061 23.0003 11.061 22.8579C11.061 22.516 11.2503 22.2515 11.6288 22.0643C12.0113 21.873 12.5526 21.7773 13.2526 21.7773C13.2526 21.4274 13.2322 21.1567 13.1915 20.9654C13.1549 20.7701 13.0816 20.6338 12.9718 20.5564C12.8619 20.4791 12.7032 20.4405 12.4956 20.4405C12.3817 20.4405 12.2799 20.4506 12.1904 20.471C12.1008 20.4913 12.0296 20.5157 11.9767 20.5442C11.9279 20.5727 11.9035 20.5992 11.9035 20.6236C11.9035 20.6439 11.9279 20.6684 11.9767 20.6968C12.0296 20.7213 12.1212 20.7559 12.2514 20.8006C12.5119 20.8902 12.6421 21.0245 12.6421 21.2035C12.6421 21.3582 12.5729 21.4762 12.4346 21.5576C12.2962 21.639 12.1232 21.6797 11.9157 21.6797C11.7122 21.6797 11.5413 21.639 11.4029 21.5576C11.2686 21.4762 11.2014 21.3561 11.2014 21.1974C11.2014 21.0916 11.2482 20.9858 11.3418 20.88C11.4354 20.7742 11.5616 20.6806 11.7203 20.5992C11.879 20.5137 12.0601 20.4466 12.2636 20.3977C12.4712 20.3448 12.6869 20.3184 12.9107 20.3184ZM13.2526 21.8445C12.988 21.8445 12.7723 21.8933 12.6055 21.991C12.4386 22.0846 12.3145 22.2026 12.2331 22.3451C12.1558 22.4875 12.1171 22.6299 12.1171 22.7724C12.1171 22.8579 12.1293 22.9291 12.1537 22.986C12.1822 23.039 12.2168 23.0797 12.2575 23.1081C12.3023 23.1326 12.3552 23.1448 12.4162 23.1448C12.4773 23.1448 12.5444 23.1285 12.6177 23.0959C12.691 23.0634 12.7642 23.0125 12.8375 22.9433C12.9148 22.8741 12.988 22.7846 13.0572 22.6747C13.1305 22.5648 13.1956 22.4305 13.2526 22.2718V21.8445Z" fill="black"/>
<path d="M9.1709 23.5538C8.98369 23.5538 8.80259 23.5355 8.62759 23.4988C8.45667 23.4663 8.30202 23.4174 8.16365 23.3523C8.02935 23.2872 7.9215 23.2078 7.84011 23.1142C7.76278 23.0166 7.72412 22.9067 7.72412 22.7846C7.72412 22.6829 7.75464 22.6015 7.81569 22.5404C7.87673 22.4753 7.95406 22.4265 8.04766 22.3939C8.14534 22.3613 8.24504 22.3451 8.34679 22.3451C8.45667 22.3451 8.55637 22.3613 8.64591 22.3939C8.73951 22.4265 8.81277 22.4733 8.86567 22.5343C8.92265 22.5954 8.95114 22.6706 8.95114 22.7602C8.95114 22.8212 8.93893 22.8762 8.91451 22.925C8.89416 22.9738 8.85753 23.0267 8.80463 23.0837C8.74765 23.1366 8.70695 23.1814 8.68254 23.218C8.66219 23.2506 8.65201 23.2872 8.65201 23.3279C8.65201 23.3523 8.66829 23.3788 8.70085 23.4073C8.73748 23.4317 8.79038 23.452 8.85957 23.4683C8.92875 23.4887 9.01422 23.4988 9.11596 23.4988C9.25433 23.4988 9.38049 23.4826 9.49444 23.45C9.61246 23.4134 9.70607 23.3605 9.77525 23.2913C9.84443 23.218 9.87903 23.1224 9.87903 23.0044C9.87903 22.9026 9.8485 22.8111 9.78746 22.7297C9.73048 22.6483 9.63078 22.5689 9.48834 22.4916C9.34997 22.4102 9.16073 22.3247 8.92061 22.2352C8.63166 22.1212 8.40173 22.0114 8.2308 21.9055C8.06394 21.7957 7.94388 21.6817 7.87063 21.5637C7.80145 21.4457 7.76685 21.3195 7.76685 21.1852C7.76685 20.9207 7.90115 20.7111 8.16975 20.5564C8.44242 20.3977 8.8087 20.3184 9.26857 20.3184C9.51682 20.3184 9.74676 20.3489 9.95839 20.4099C10.1741 20.471 10.347 20.5564 10.4773 20.6663C10.6075 20.7762 10.6726 20.9064 10.6726 21.057C10.6726 21.1506 10.6441 21.2279 10.5872 21.289C10.5342 21.35 10.463 21.3968 10.3735 21.4294C10.284 21.4619 10.1904 21.4782 10.0927 21.4782C10.0113 21.4782 9.93193 21.4701 9.85461 21.4538C9.78135 21.4335 9.7142 21.407 9.65316 21.3744C9.59211 21.3378 9.54124 21.2931 9.50055 21.2401C9.46392 21.1872 9.4456 21.1262 9.4456 21.057C9.4456 20.9349 9.50665 20.825 9.62874 20.7274C9.69386 20.6704 9.73862 20.6256 9.76304 20.5931C9.78746 20.5605 9.79967 20.53 9.79967 20.5015C9.79967 20.4852 9.78949 20.4689 9.76915 20.4527C9.7488 20.4364 9.71827 20.4242 9.67758 20.416C9.64095 20.4038 9.59415 20.3936 9.53717 20.3855C9.4802 20.3774 9.41305 20.3733 9.33572 20.3733C9.19735 20.3733 9.06712 20.3896 8.94503 20.4221C8.82701 20.4506 8.72934 20.4954 8.65201 20.5564C8.57876 20.6175 8.54213 20.6968 8.54213 20.7945C8.54213 20.9003 8.58486 20.996 8.67033 21.0814C8.75579 21.1669 8.86974 21.2483 9.01218 21.3256C9.15869 21.4029 9.32351 21.4782 9.50665 21.5515C9.81595 21.6776 10.0601 21.7936 10.2392 21.8994C10.4183 22.0012 10.5444 22.105 10.6177 22.2108C10.695 22.3125 10.7337 22.4244 10.7337 22.5465C10.7337 22.7174 10.6889 22.866 10.5994 22.9922C10.5139 23.1183 10.3979 23.2221 10.2514 23.3035C10.1049 23.3849 9.93804 23.4459 9.75083 23.4866C9.5677 23.5314 9.37438 23.5538 9.1709 23.5538Z" fill="black"/>
<path d="M13.9629 17.4326C13.9629 17.5001 13.9083 17.5547 13.8408 17.5547C13.7734 17.5547 13.7188 17.5001 13.7188 17.4326C13.7188 17.3652 13.7734 17.3105 13.8408 17.3105C13.9083 17.3105 13.9629 17.3652 13.9629 17.4326Z" fill="black"/>
<path d="M14.5728 17.126C14.5728 17.1934 14.5181 17.2481 14.4507 17.2481C14.3833 17.2481 14.3286 17.1934 14.3286 17.126C14.3286 17.0586 14.3833 17.0039 14.4507 17.0039C14.5181 17.0039 14.5728 17.0586 14.5728 17.126Z" fill="black"/>
</svg>
